<svg width="1400" height="760" viewBox="0 0 1400 760" fill="none" xmlns="http://www.w3.org/2000/svg">
  <defs>
    <linearGradient id="bg" x1="0" y1="0" x2="1400" y2="760" gradientUnits="userSpaceOnUse">
      <stop stop-color="#0F172A"/>
      <stop offset="1" stop-color="#111827"/>
    </linearGradient>
    <linearGradient id="beforeGrad" x1="86" y1="170" x2="604" y2="642" gradientUnits="userSpaceOnUse">
      <stop stop-color="#7F1D1D"/>
      <stop offset="1" stop-color="#991B1B"/>
    </linearGradient>
    <linearGradient id="afterGrad" x1="796" y1="170" x2="1314" y2="642" gradientUnits="userSpaceOnUse">
      <stop stop-color="#064E3B"/>
      <stop offset="1" stop-color="#047857"/>
    </linearGradient>
    <linearGradient id="arrowGrad" x1="612" y1="372" x2="788" y2="372" gradientUnits="userSpaceOnUse">
      <stop stop-color="#F59E0B"/>
      <stop offset="1" stop-color="#22C55E"/>
    </linearGradient>
    <filter id="shadow" x="-20%" y="-20%" width="140%" height="150%">
      <feDropShadow dx="0" dy="18" stdDeviation="16" flood-color="#000000" flood-opacity="0.30"/>
    </filter>
  </defs>

  <rect width="1400" height="760" fill="url(#bg)"/>
  <rect x="46" y="42" width="1308" height="676" rx="30" fill="#0B1120" stroke="#263244"/>

  <text x="700" y="98" text-anchor="middle" fill="#F8FAFC" font-family="Inter,Segoe UI,Arial,sans-serif" font-size="40" font-weight="800">
    Passage d'Excel à la WebApp
  </text>
  <text x="700" y="134" text-anchor="middle" fill="#CBD5E1" font-family="Inter,Segoe UI,Arial,sans-serif" font-size="18">
    Comparaison avant / après et gains obtenus
  </text>

  <g filter="url(#shadow)">
    <rect x="86" y="170" width="518" height="472" rx="24" fill="#111827" stroke="#334155"/>
    <rect x="86" y="170" width="518" height="82" rx="24" fill="url(#beforeGrad)"/>
    <path d="M86 228H604V252H86V228Z" fill="url(#beforeGrad)"/>
    <text x="126" y="222" fill="#FFFFFF" font-family="Inter,Segoe UI,Arial,sans-serif" font-size="30" font-weight="800">Avant</text>
    <text x="126" y="244" fill="#FEE2E2" font-family="Inter,Segoe UI,Arial,sans-serif" font-size="15">Gestion par fichiers Excel</text>

    <rect x="124" y="292" width="442" height="54" rx="14" fill="#1F2937" stroke="#3F4A5F"/>
    <circle cx="151" cy="319" r="8" fill="#EF4444"/>
    <text x="176" y="325" fill="#E5E7EB" font-family="Inter,Segoe UI,Arial,sans-serif" font-size="17">Fichiers dispersés par e-mail ou Slack</text>

    <rect x="124" y="362" width="442" height="54" rx="14" fill="#1F2937" stroke="#3F4A5F"/>
    <circle cx="151" cy="389" r="8" fill="#EF4444"/>
    <text x="176" y="395" fill="#E5E7EB" font-family="Inter,Segoe UI,Arial,sans-serif" font-size="17">Risque d'erreurs de version et doublons</text>

    <rect x="124" y="432" width="442" height="54" rx="14" fill="#1F2937" stroke="#3F4A5F"/>
    <circle cx="151" cy="459" r="8" fill="#EF4444"/>
    <text x="176" y="465" fill="#E5E7EB" font-family="Inter,Segoe UI,Arial,sans-serif" font-size="17">Historique et validations peu traçables</text>

    <rect x="124" y="502" width="442" height="54" rx="14" fill="#1F2937" stroke="#3F4A5F"/>
    <circle cx="151" cy="529" r="8" fill="#EF4444"/>
    <text x="176" y="535" fill="#E5E7EB" font-family="Inter,Segoe UI,Arial,sans-serif" font-size="17">Contrôle d'accès limité aux fichiers</text>

    <rect x="124" y="572" width="442" height="38" rx="19" fill="#2A1212" stroke="#7F1D1D"/>
    <text x="345" y="597" text-anchor="middle" fill="#FCA5A5" font-family="Inter,Segoe UI,Arial,sans-serif" font-size="16" font-weight="700">Processus manuel et difficile à superviser</text>
  </g>

  <g>
    <path d="M626 372H756" stroke="url(#arrowGrad)" stroke-width="18" stroke-linecap="round"/>
    <path d="M744 332L790 372L744 412" fill="none" stroke="#22C55E" stroke-width="18" stroke-linecap="round" stroke-linejoin="round"/>
    <rect x="606" y="450" width="188" height="56" rx="28" fill="#111827" stroke="#334155"/>
    <text x="700" y="474" text-anchor="middle" fill="#F8FAFC" font-family="Inter,Segoe UI,Arial,sans-serif" font-size="15" font-weight="700">Transformation</text>
    <text x="700" y="495" text-anchor="middle" fill="#CBD5E1" font-family="Inter,Segoe UI,Arial,sans-serif" font-size="13">centralisation + sécurité</text>
  </g>

  <g filter="url(#shadow)">
    <rect x="796" y="170" width="518" height="472" rx="24" fill="#111827" stroke="#334155"/>
    <rect x="796" y="170" width="518" height="82" rx="24" fill="url(#afterGrad)"/>
    <path d="M796 228H1314V252H796V228Z" fill="url(#afterGrad)"/>
    <text x="836" y="222" fill="#FFFFFF" font-family="Inter,Segoe UI,Arial,sans-serif" font-size="30" font-weight="800">Après</text>
    <text x="836" y="244" fill="#D1FAE5" font-family="Inter,Segoe UI,Arial,sans-serif" font-size="15">Application web centralisée</text>

    <rect x="834" y="292" width="442" height="54" rx="14" fill="#13231E" stroke="#255D49"/>
    <circle cx="861" cy="319" r="8" fill="#22C55E"/>
    <text x="886" y="325" fill="#E5E7EB" font-family="Inter,Segoe UI,Arial,sans-serif" font-size="17">Données regroupées dans une base unique</text>

    <rect x="834" y="362" width="442" height="54" rx="14" fill="#13231E" stroke="#255D49"/>
    <circle cx="861" cy="389" r="8" fill="#22C55E"/>
    <text x="886" y="395" fill="#E5E7EB" font-family="Inter,Segoe UI,Arial,sans-serif" font-size="17">Calculs, imports et exports standardisés</text>

    <rect x="834" y="432" width="442" height="54" rx="14" fill="#13231E" stroke="#255D49"/>
    <circle cx="861" cy="459" r="8" fill="#22C55E"/>
    <text x="886" y="465" fill="#E5E7EB" font-family="Inter,Segoe UI,Arial,sans-serif" font-size="17">Historique, logs et suivi des modifications</text>

    <rect x="834" y="502" width="442" height="54" rx="14" fill="#13231E" stroke="#255D49"/>
    <circle cx="861" cy="529" r="8" fill="#22C55E"/>
    <text x="886" y="535" fill="#E5E7EB" font-family="Inter,Segoe UI,Arial,sans-serif" font-size="17">Accès sécurisés par rôles et permissions</text>

    <rect x="834" y="572" width="442" height="38" rx="19" fill="#062A20" stroke="#047857"/>
    <text x="1055" y="597" text-anchor="middle" fill="#86EFAC" font-family="Inter,Segoe UI,Arial,sans-serif" font-size="16" font-weight="700">Processus fiable, supervisable et évolutif</text>
  </g>

  <g>
    <rect x="240" y="674" width="920" height="44" rx="22" fill="#07111F" stroke="#263244"/>
    <text x="700" y="702" text-anchor="middle" fill="#CBD5E1" font-family="Inter,Segoe UI,Arial,sans-serif" font-size="15">
      Gains principaux : centralisation, réduction des erreurs, sécurité des accès, traçabilité et meilleure continuité d'exploitation.
    </text>
  </g>
</svg>
