<svg width="1400" height="640" viewBox="0 0 1400 640" fill="none" xmlns="http://www.w3.org/2000/svg">
  <rect width="1400" height="640" rx="28" fill="#0F1117"/>
  <rect x="42" y="42" width="1316" height="556" rx="24" fill="#151923" stroke="#2B3242"/>

  <text x="700" y="96" text-anchor="middle" fill="#F8FAFC" font-family="Inter,Segoe UI,Arial,sans-serif" font-size="34" font-weight="700">
    Architecture cible
  </text>
  <text x="700" y="128" text-anchor="middle" fill="#94A3B8" font-family="Inter,Segoe UI,Arial,sans-serif" font-size="17">
    Navigateur utilisateur → Application web → Supabase → PostgreSQL
  </text>

  <defs>
    <filter id="shadow" x="-20%" y="-20%" width="140%" height="140%">
      <feDropShadow dx="0" dy="14" stdDeviation="16" flood-color="#000000" flood-opacity="0.28"/>
    </filter>
    <linearGradient id="userGrad" x1="0" y1="0" x2="1" y2="1">
      <stop stop-color="#2563EB"/>
      <stop offset="1" stop-color="#38BDF8"/>
    </linearGradient>
    <linearGradient id="appGrad" x1="0" y1="0" x2="1" y2="1">
      <stop stop-color="#C77806"/>
      <stop offset="1" stop-color="#F59E0B"/>
    </linearGradient>
    <linearGradient id="supabaseGrad" x1="0" y1="0" x2="1" y2="1">
      <stop stop-color="#059669"/>
      <stop offset="1" stop-color="#34D399"/>
    </linearGradient>
    <linearGradient id="dbGrad" x1="0" y1="0" x2="1" y2="1">
      <stop stop-color="#7C3AED"/>
      <stop offset="1" stop-color="#A78BFA"/>
    </linearGradient>
  </defs>

  <g filter="url(#shadow)">
    <rect x="92" y="234" width="250" height="190" rx="22" fill="#10151F" stroke="#263244"/>
    <circle cx="217" cy="290" r="38" fill="url(#userGrad)"/>
    <path d="M217 268C228 268 236 276 236 287C236 298 228 306 217 306C206 306 198 298 198 287C198 276 206 268 217 268Z" fill="white"/>
    <path d="M191 335C197 317 207 311 217 311C227 311 237 317 243 335" stroke="white" stroke-width="7" stroke-linecap="round"/>
    <text x="217" y="374" text-anchor="middle" fill="#F8FAFC" font-family="Inter,Segoe UI,Arial,sans-serif" font-size="22" font-weight="700">Navigateur</text>
    <text x="217" y="402" text-anchor="middle" fill="#CBD5E1" font-family="Inter,Segoe UI,Arial,sans-serif" font-size="15">Utilisateur</text>
  </g>

  <g filter="url(#shadow)">
    <rect x="414" y="234" width="250" height="190" rx="22" fill="#10151F" stroke="#263244"/>
    <rect x="494" y="266" width="90" height="66" rx="10" fill="url(#appGrad)"/>
    <rect x="506" y="278" width="66" height="36" rx="5" stroke="white" stroke-width="5"/>
    <path d="M512 342H566" stroke="white" stroke-width="6" stroke-linecap="round"/>
    <text x="539" y="374" text-anchor="middle" fill="#F8FAFC" font-family="Inter,Segoe UI,Arial,sans-serif" font-size="22" font-weight="700">Application web</text>
    <text x="539" y="402" text-anchor="middle" fill="#CBD5E1" font-family="Inter,Segoe UI,Arial,sans-serif" font-size="15">React / Vite</text>
  </g>

  <g filter="url(#shadow)">
    <rect x="736" y="234" width="250" height="190" rx="22" fill="#10151F" stroke="#263244"/>
    <circle cx="861" cy="300" r="42" fill="url(#supabaseGrad)"/>
    <path d="M842 318L864 276L882 318H842Z" fill="white"/>
    <text x="861" y="374" text-anchor="middle" fill="#F8FAFC" font-family="Inter,Segoe UI,Arial,sans-serif" font-size="22" font-weight="700">Supabase</text>
    <text x="861" y="402" text-anchor="middle" fill="#CBD5E1" font-family="Inter,Segoe UI,Arial,sans-serif" font-size="15">Auth, RLS, Edge Functions</text>
  </g>

  <g filter="url(#shadow)">
    <rect x="1058" y="234" width="250" height="190" rx="22" fill="#10151F" stroke="#263244"/>
    <ellipse cx="1183" cy="270" rx="58" ry="22" fill="url(#dbGrad)"/>
    <path d="M1125 270V326C1125 338 1151 348 1183 348C1215 348 1241 338 1241 326V270" stroke="white" stroke-width="5"/>
    <path d="M1125 298C1125 310 1151 320 1183 320C1215 320 1241 310 1241 298" stroke="white" stroke-width="5"/>
    <text x="1183" y="374" text-anchor="middle" fill="#F8FAFC" font-family="Inter,Segoe UI,Arial,sans-serif" font-size="22" font-weight="700">PostgreSQL</text>
    <text x="1183" y="402" text-anchor="middle" fill="#CBD5E1" font-family="Inter,Segoe UI,Arial,sans-serif" font-size="15">Base de données</text>
  </g>

  <path d="M342 329H386" stroke="#64748B" stroke-width="5" stroke-linecap="round"/>
  <path d="M374 313L390 329L374 345" stroke="#64748B" stroke-width="5" stroke-linecap="round" stroke-linejoin="round"/>
  <path d="M664 329H708" stroke="#64748B" stroke-width="5" stroke-linecap="round"/>
  <path d="M696 313L712 329L696 345" stroke="#64748B" stroke-width="5" stroke-linecap="round" stroke-linejoin="round"/>
  <path d="M986 329H1030" stroke="#64748B" stroke-width="5" stroke-linecap="round"/>
  <path d="M1018 313L1034 329L1018 345" stroke="#64748B" stroke-width="5" stroke-linecap="round" stroke-linejoin="round"/>

  <rect x="226" y="498" width="948" height="48" rx="24" fill="#0B1220" stroke="#263244"/>
  <text x="700" y="528" text-anchor="middle" fill="#CBD5E1" font-family="Inter,Segoe UI,Arial,sans-serif" font-size="16">
    Accès sécurisé par authentification, rôles applicatifs, règles RLS et journalisation des actions sensibles
  </text>
</svg>
